<svg width="24" height="24" viewBox="0 0 24 24" fill="none" xmlns="http://www.w3.org/2000/svg">
<path d="M7.99993 3.24918C8.19899 3.24824 8.39004 3.32754 8.52993 3.46918L16.5299 11.4692C16.8224 11.762 16.8224 12.2364 16.5299 12.5292L8.52993 20.5292C8.23442 20.8045 7.77392 20.7964 7.48831 20.5108C7.20269 20.2252 7.19457 19.7647 7.46993 19.4692L14.9399 11.9992L7.46993 4.52918C7.17747 4.23636 7.17747 3.76199 7.46993 3.46918C7.60981 3.32754 7.80086 3.24824 7.99993 3.24918Z" fill="#6D29D0" fill-opacity="0.8"/>
<path d="M7.99993 2.74917C7.66814 2.74824 7.34982 2.88032 7.11615 3.11584C6.62873 3.60387 6.62873 4.39448 7.11615 4.88251L7.11637 4.88273L14.2328 11.9992L7.11637 19.1156L7.11014 19.1219L7.10412 19.1283C6.64519 19.6208 6.65873 20.3883 7.13475 20.8644C7.61077 21.3404 8.37827 21.3539 8.87079 20.895L8.87724 20.889L8.88348 20.8827L16.8835 12.8827L16.8837 12.8825C17.3711 12.3945 17.3711 11.6039 16.8837 11.1158L16.8835 11.1156L8.88567 3.11783C8.88523 3.11738 8.88478 3.11692 8.88433 3.11647C8.6506 2.88055 8.33201 2.74824 7.99993 2.74917ZM7.99993 2.74917C8.00071 2.74917 8.0015 2.74918 8.00229 2.74918L7.99993 3.24918L7.99757 2.74918C7.99835 2.74918 7.99914 2.74917 7.99993 2.74917Z" stroke="#6D29D0" stroke-opacity="0.8"/>
</svg>
