<?xml version="1.0" encoding="UTF-8" standalone="no"?>
<svg
   viewBox="0 0 135 40.000004"
   version="1.1"
   id="svg1198"
   sodipodi:docname="google_download_btn_beta2.svg"
   inkscape:version="1.1.1 (3bf5ae0d25, 2021-09-20)"
   width="135"
   height="40.000004"
   xmlns:inkscape="http://www.inkscape.org/namespaces/inkscape"
   xmlns:sodipodi="http://sodipodi.sourceforge.net/DTD/sodipodi-0.dtd"
   xmlns="http://www.w3.org/2000/svg"
   xmlns:svg="http://www.w3.org/2000/svg"
   xmlns:rdf="http://www.w3.org/1999/02/22-rdf-syntax-ns#"
   xmlns:cc="http://creativecommons.org/ns#"
   xmlns:dc="http://purl.org/dc/elements/1.1/">
  <sodipodi:namedview
     id="namedview1200"
     pagecolor="#ffffff"
     bordercolor="#666666"
     borderopacity="1.0"
     inkscape:pageshadow="2"
     inkscape:pageopacity="0.0"
     inkscape:pagecheckerboard="0"
     showgrid="true"
     inkscape:zoom="5.0227391"
     inkscape:cx="96.262216"
     inkscape:cy="20.009003"
     inkscape:window-width="1858"
     inkscape:window-height="1057"
     inkscape:window-x="1974"
     inkscape:window-y="-8"
     inkscape:window-maximized="1"
     inkscape:current-layer="svg1198"
     inkscape:snap-grids="true">
    <inkscape:grid
       type="xygrid"
       id="grid1492"
       originx="0"
       originy="0" />
  </sodipodi:namedview>
  <defs
     id="defs1170">
    <linearGradient
       id="a"
       x1="31.799999"
       y1="183.28999"
       x2="15.02"
       y2="166.50999"
       gradientTransform="matrix(1,0,0,-1,-9.9999964,192)"
       gradientUnits="userSpaceOnUse">
      <stop
         offset="0"
         stop-color="#00a0ff"
         id="stop1132" />
      <stop
         offset=".01"
         stop-color="#00a1ff"
         id="stop1134" />
      <stop
         offset=".26"
         stop-color="#00beff"
         id="stop1136" />
      <stop
         offset=".51"
         stop-color="#00d2ff"
         id="stop1138" />
      <stop
         offset=".76"
         stop-color="#00dfff"
         id="stop1140" />
      <stop
         offset="1"
         stop-color="#00e3ff"
         id="stop1142" />
    </linearGradient>
    <linearGradient
       id="b"
       x1="43.830002"
       y1="172"
       x2="19.639999"
       y2="172"
       gradientTransform="matrix(1,0,0,-1,-9.9999964,192)"
       gradientUnits="userSpaceOnUse">
      <stop
         offset="0"
         stop-color="#ffe000"
         id="stop1145" />
      <stop
         offset=".41"
         stop-color="#ffbd00"
         id="stop1147" />
      <stop
         offset=".78"
         stop-color="orange"
         id="stop1149" />
      <stop
         offset="1"
         stop-color="#ff9c00"
         id="stop1151" />
    </linearGradient>
    <linearGradient
       id="c"
       x1="34.830002"
       y1="169.7"
       x2="12.07"
       y2="146.95"
       gradientTransform="matrix(1,0,0,-1,-9.9999964,192)"
       gradientUnits="userSpaceOnUse">
      <stop
         offset="0"
         stop-color="#ff3a44"
         id="stop1154" />
      <stop
         offset="1"
         stop-color="#c31162"
         id="stop1156" />
    </linearGradient>
    <linearGradient
       id="d"
       x1="17.299999"
       y1="191.82001"
       x2="27.459999"
       y2="181.66"
       gradientTransform="matrix(1,0,0,-1,-9.9999964,192)"
       gradientUnits="userSpaceOnUse">
      <stop
         offset="0"
         stop-color="#32a071"
         id="stop1159" />
      <stop
         offset=".07"
         stop-color="#2da771"
         id="stop1161" />
      <stop
         offset=".48"
         stop-color="#15cf74"
         id="stop1163" />
      <stop
         offset=".8"
         stop-color="#06e775"
         id="stop1165" />
      <stop
         offset="1"
         stop-color="#00f076"
         id="stop1167" />
    </linearGradient>
  </defs>
  <title
     id="title1172">ko_get</title>
  <path
     fill="none"
     d="M 3.5785099e-6,3.4785099e-6 H 135 V 40.000003 H 3.5785099e-6 Z"
     id="path1174"
     style="stroke-width:0.762001" />
  <rect
     x="0"
     y="0"
     width="135"
     height="40"
     rx="5"
     ry="5"
     id="rect1176" />
  <path
     d="m 130,0.8000031 a 4.2,4.2 0 0 1 4.2,4.2 V 35.000003 a 4.2,4.2 0 0 1 -4.2,4.2 H 5.0000034 a 4.2,4.2 0 0 1 -4.2,-4.2 V 5.0000031 a 4.2,4.2 0 0 1 4.2,-4.2 H 130 M 130,3.4785099e-6 H 5.0000034 A 5,5 0 0 0 3.5785099e-6,5.0000031 V 35.000003 a 5,5 0 0 0 4.9999998214901,5 H 130 a 5,5 0 0 0 5,-5 V 5.0000031 A 5,5 0 0 0 130,3.4785099e-6 Z"
     fill="#a6a6a6"
     id="path1178" />
  <path
     d="m 68.140003,21.750003 a 4.25,4.25 0 1 0 4.27,4.25 4.19,4.19 0 0 0 -4.27,-4.25 z m 0,6.83 a 2.58,2.58 0 1 1 2.4,-2.58 2.46,2.46 0 0 1 -2.4,2.58 z m -9.31,-6.83 a 4.25,4.25 0 1 0 4.26,4.25 4.19,4.19 0 0 0 -4.27,-4.25 z m 0,6.83 a 2.58,2.58 0 1 1 2.39,-2.58 2.46,2.46 0 0 1 -2.4,2.58 z m -11.09,-5.52 v 1.8 h 4.32 a 3.77,3.77 0 0 1 -1,2.27 4.42,4.42 0 0 1 -3.33,1.32 4.8,4.8 0 0 1 0,-9.6 4.6,4.6 0 0 1 3.27,1.29 l 1.27,-1.27 a 6.29,6.29 0 0 0 -4.53,-1.87 6.61,6.61 0 1 0 0,13.21 6,6 0 0 0 4.61,-1.85 6,6 0 0 0 1.56,-4.22 5.87,5.87 0 0 0 -0.1,-1.13 z m 45.31,1.4 a 4,4 0 0 0 -3.64,-2.71 4,4 0 0 0 -4,4.25 4.16,4.16 0 0 0 4.22,4.25 4.23,4.23 0 0 0 3.54,-1.88 l -1.45,-1 a 2.43,2.43 0 0 1 -2.09,1.18 2.16,2.16 0 0 1 -2.06,-1.29 l 5.69,-2.35 z m -5.8,1.42 a 2.33,2.33 0 0 1 2.22,-2.48 1.65,1.65 0 0 1 1.58,0.9 z m -4.62,4.12 h 1.87 v -12.5 h -1.87 z m -3.06,-7.3 h -0.07 a 3,3 0 0 0 -2.24,-1 4.26,4.26 0 0 0 0,8.51 2.9,2.9 0 0 0 2.24,-1 h 0.06 v 0.61 c 0,1.63 -0.87,2.5 -2.27,2.5 a 2.35,2.35 0 0 1 -2.14,-1.51 l -1.63,0.68 a 4.05,4.05 0 0 0 3.77,2.51 c 2.19,0 4,-1.29 4,-4.43 v -7.57 h -1.72 z m -2.14,5.88 a 2.59,2.59 0 0 1 0,-5.16 2.4,2.4 0 0 1 2.27,2.58 2.38,2.38 0 0 1 -2.28,2.58 z m 24.379997,-11.08 h -4.469997 v 12.5 H 99.21 v -4.74 h 2.61 a 3.89,3.89 0 1 0 0,-7.76 z m 0,6 H 99.2 v -4.26 h 2.65 a 2.145,2.145 0 1 1 0,4.29 z m 11.53,-1.8 a 3.5,3.5 0 0 0 -3.33,1.91 l 1.66,0.69 a 1.77,1.77 0 0 1 1.7,-0.92 1.8,1.8 0 0 1 2,1.61 v 0.13 a 4.13,4.13 0 0 0 -1.95,-0.48 c -1.79,0 -3.6,1 -3.6,2.81 a 2.89,2.89 0 0 0 3.1,2.75 2.63,2.63 0 0 0 2.4,-1.2 h 0.06 v 1 h 1.8 v -4.81 c 0,-2.19 -1.66,-3.46 -3.79,-3.46 z m -0.23,6.85 c -0.61,0 -1.46,-0.31 -1.46,-1.06 0,-1 1.06,-1.33 2,-1.33 a 3.32,3.32 0 0 1 1.7,0.42 2.26,2.26 0 0 1 -2.19,2 z m 10.63,-6.55 -2.14,5.42 h -0.06 l -2.22,-5.42 h -2 l 3.33,7.58 -1.9,4.21 h 1.95 l 5.12,-11.79 z m -16.81,8 h 1.87 v -12.5 h -1.87 z"
     fill="#ffffff"
     id="path1180" />
  <path
     d="m 10.440003,7.5400031 a 2,2 0 0 0 -0.46,1.3999999 v 22.12 a 2,2 0 0 0 0.46,1.4 l 0.07,0.07 12.39,-12.38 v -0.29 l -12.39,-12.3899999 z"
     fill="url(#a)"
     id="path1182"
     style="fill:url(#a)" />
  <path
     d="m 27.000003,24.280003 -4.1,-4.13 v -0.29 l 4.1,-4.14 0.09,0.05 4.91,2.79 c 1.4,0.79 1.4,2.09 0,2.89 l -4.89,2.78 z"
     fill="url(#b)"
     id="path1184"
     style="fill:url(#b)" />
  <path
     d="m 27.120003,24.220003 -4.22,-4.22 -12.46,12.46 a 1.63,1.63 0 0 0 2.08,0.06 l 14.61,-8.3"
     fill="url(#c)"
     id="path1186"
     style="fill:url(#c)" />
  <path
     d="m 27.120003,15.780003 -14.61,-8.2999999 a 1.63,1.63 0 0 0 -2.08,0.06 l 12.47,12.4599999 z"
     fill="url(#d)"
     id="path1188"
     style="fill:url(#d)" />
  <path
     d="m 27.000003,24.130003 -14.49,8.25 a 1.67,1.67 0 0 1 -2,0 l -0.07,0.07 0.07,0.07 a 1.66,1.66 0 0 0 2,0 l 14.61,-8.3 z"
     style="isolation:isolate"
     opacity="0.2"
     id="path1190" />
  <path
     d="m 10.440003,32.320003 a 2,2 0 0 1 -0.46,-1.4 v 0.15 a 2,2 0 0 0 0.46,1.4 l 0.07,-0.07 z m 21.56,-11.02 -5,2.83 0.09,0.09 4.91,-2.78 a 1.75,1.75 0 0 0 1,-1.44 1.86,1.86 0 0 1 -1,1.3 z"
     style="isolation:isolate"
     opacity="0.12"
     id="path1192" />
  <path
     d="m 12.510003,7.6200031 19.49,11.0799999 a 1.86,1.86 0 0 1 1,1.3 1.75,1.75 0 0 0 -1,-1.44 l -19.49,-11.0799999 c -1.4,-0.79 -2.54,-0.13 -2.54,1.4699999 v 0.15 c 0.03,-1.6099999 1.15,-2.2699999 2.54,-1.4799999 z"
     style="isolation:isolate"
     fill="#ffffff"
     opacity="0.25"
     id="path1194" />
  <path
     d="m 42.000003,11.400003 a 21.77,21.77 0 0 0 4,-0.3 l 0.09,0.68 a 21.22,21.22 0 0 1 -4.24,0.32 h -0.71 V 6.2200031 h 4.17 v 0.68 h -3.31 z m 7.18,-1.83 h -1.44 v 4.77 h -0.82 V 5.3400031 h 0.82 V 8.900003 h 1.48 z m 9.17,0.34 v 0.67 h -3.58 v 1.81 h -0.83 v -1.81 h -3.72 v -0.67 z m -7.21,-2.5199999 c 0,-1.11 1.24,-1.8 3.14,-1.8 1.9,0 3.14,0.69 3.14,1.8 0,1.1099999 -1.24,1.7999999 -3.14,1.7999999 -1.9,0 -3.14,-0.69 -3.14,-1.7999999 z m 0.94,6.0599999 h 5.38 v 0.68 h -6.2 v -2.63 h 0.82 z m -0.08,-6.0599999 c 0,0.7 0.91,1.1299999 2.28,1.1299999 1.37,0 2.28,-0.4299999 2.28,-1.1299999 0,-0.7 -0.9,-1.14 -2.28,-1.14 -1.38,0 -2.28,0.43 -2.28,1.14 z m 15.22,5.1499999 v 0.67 h -8.15 v -0.67 h 3.65 v -1.68 h -2.63 V 8.0900031 h 5.32 v -1.4 h -5.34 v -0.69 h 6.14 V 8.730003 h -5.31 v 1.47 h 5.52 v 0.66 h -2.87 v 1.69 z m 9.35,-0.11 v 0.68 h -8.14 v -0.68 z m -0.94,-2.11 h -6.16 V 6.1800031 h 6.07 v 0.68 h -5.26 V 9.660003 h 5.35 z m 4.71,-3.5199999 h 2.21 v 0.66 h -5.29 v -0.66 h 2.26 v -1.33 h 0.82 z m 1.79,3.4699999 a 2.18,2.18 0 1 1 -2.19,-2.0699999 2,2 0 0 1 2.19,2.0699999 z m -0.78,0 a 1.4,1.4 0 1 0 -1.41,1.38 1.35,1.35 0 0 0 1.41,-1.38 z m 4.34,-0.53 h -1.47 v 4.59 h -0.82 V 5.3300031 h 0.82 V 9.000003 h 1.47 z m 5.04,-3.4099999 a 6.72,6.72 0 0 1 -4.17,6.3299999 l -0.43,-0.66 a 5.93,5.93 0 0 0 3.78,-4.9999999 h -3.37 v -0.66 z m 2.63,-1 v 8.9999999 h -0.82 V 5.3300031 Z"
     fill="#ffffff"
     stroke="#ffffff"
     stroke-miterlimit="10"
     stroke-width="0.2"
     id="path1196" />
  <metadata
     id="metadata1282">
    <rdf:RDF>
      <cc:Work
         rdf:about="">
        <dc:title>ko_get</dc:title>
      </cc:Work>
    </rdf:RDF>
  </metadata>
</svg>
