<svg width="32" height="32" viewBox="0 0 32 32" fill="none" xmlns="http://www.w3.org/2000/svg">
<path d="M25.3571 13.0357H17.9643V5.64286C17.9643 4.73569 17.2286 4 16.3214 4H14.6786C13.7714 4 13.0357 4.73569 13.0357 5.64286V13.0357H5.64286C4.73569 13.0357 4 13.7714 4 14.6786V16.3214C4 17.2286 4.73569 17.9643 5.64286 17.9643H13.0357V25.3571C13.0357 26.2643 13.7714 27 14.6786 27H16.3214C17.2286 27 17.9643 26.2643 17.9643 25.3571V17.9643H25.3571C26.2643 17.9643 27 17.2286 27 16.3214V14.6786C27 13.7714 26.2643 13.0357 25.3571 13.0357Z" fill="white"/>
</svg>
