<svg width="26" height="26" viewBox="0 0 26 26" fill="none" xmlns="http://www.w3.org/2000/svg">
<path d="M26 13C26 13.3831 25.8859 13.7505 25.6827 14.0214C25.4795 14.2923 25.204 14.4444 24.9167 14.4444H1.08333C0.796015 14.4444 0.520465 14.2923 0.317301 14.0214C0.114136 13.7505 0 13.3831 0 13C0 12.6169 0.114136 12.2495 0.317301 11.9786C0.520465 11.7077 0.796015 11.5556 1.08333 11.5556H24.9167C25.204 11.5556 25.4795 11.7077 25.6827 11.9786C25.8859 12.2495 26 12.6169 26 13ZM1.08333 2.88889H24.9167C25.204 2.88889 25.4795 2.73671 25.6827 2.46582C25.8859 2.19493 26 1.82753 26 1.44444C26 1.06135 25.8859 0.693954 25.6827 0.423068C25.4795 0.152182 25.204 0 24.9167 0H1.08333C0.796015 0 0.520465 0.152182 0.317301 0.423068C0.114136 0.693954 0 1.06135 0 1.44444C0 1.82753 0.114136 2.19493 0.317301 2.46582C0.520465 2.73671 0.796015 2.88889 1.08333 2.88889ZM24.9167 23.1111H1.08333C0.796015 23.1111 0.520465 23.2633 0.317301 23.5342C0.114136 23.8051 0 24.1725 0 24.5556C0 24.9386 0.114136 25.306 0.317301 25.5769C0.520465 25.8478 0.796015 26 1.08333 26H24.9167C25.204 26 25.4795 25.8478 25.6827 25.5769C25.8859 25.306 26 24.9386 26 24.5556C26 24.1725 25.8859 23.8051 25.6827 23.5342C25.4795 23.2633 25.204 23.1111 24.9167 23.1111Z" fill="black"/>
</svg>
