<svg width="26" height="26" viewBox="0 0 26 26" fill="none" xmlns="http://www.w3.org/2000/svg">
<path d="M17.3642 13L25.3819 4.98226C26.206 4.15813 26.206 2.82196 25.3819 1.99782L24.0022 0.618104C23.178 -0.206035 21.8419 -0.206035 21.0177 0.618104L13 8.63584L4.98226 0.618104C4.15813 -0.206035 2.82196 -0.206035 1.99782 0.618104L0.618104 1.99782C-0.206035 2.82196 -0.206035 4.15813 0.618104 4.98226L8.63584 13L0.618104 21.0177C-0.206035 21.8419 -0.206035 23.178 0.618104 24.0022L1.99782 25.3819C2.82196 26.206 4.15813 26.206 4.98226 25.3819L13 17.3642L21.0177 25.3819C21.8419 26.206 23.178 26.206 24.0022 25.3819L25.3819 24.0022C26.206 23.178 26.206 21.8419 25.3819 21.0177L17.3642 13Z" fill="black"/>
</svg>
