<svg width="36" height="36" viewBox="0 0 36 36" fill="none" xmlns="http://www.w3.org/2000/svg">
<rect width="36" height="36" fill="black"/>
<path d="M22.3642 18L30.3819 9.98226C31.206 9.15813 31.206 7.82196 30.3819 6.99782L29.0022 5.6181C28.178 4.79397 26.8419 4.79397 26.0177 5.6181L18 13.6358L9.98226 5.6181C9.15813 4.79397 7.82196 4.79397 6.99782 5.6181L5.6181 6.99782C4.79397 7.82196 4.79397 9.15813 5.6181 9.98226L13.6358 18L5.6181 26.0177C4.79397 26.8419 4.79397 28.178 5.6181 29.0022L6.99782 30.3819C7.82196 31.206 9.15813 31.206 9.98226 30.3819L18 22.3642L26.0177 30.3819C26.8419 31.206 28.178 31.206 29.0022 30.3819L30.3819 29.0022C31.206 28.178 31.206 26.8419 30.3819 26.0177L22.3642 18Z" fill="white"/>
</svg>
